<?xml version="1.0" encoding="UTF-8"?>
<svg width="160" height="40" viewBox="0 0 160 40" fill="none" xmlns="http://www.w3.org/2000/svg">
  <defs>
    <linearGradient id="g" x1="0" y1="0" x2="1" y2="1">
      <stop offset="0%" stop-color="#2B7A78"/>
      <stop offset="100%" stop-color="#4CAF50"/>
    </linearGradient>
  </defs>
  <g>
    <path d="M18 28c6-3 10-9 10-15 0-3-1-6-3-8-2 2-5 3-8 3-6 0-12-4-15-10 0 12 8 20 16 20 2 0 4 0 6-1-1 5-4 9-8 11-2 1-1 4 2 3z" fill="url(#g)"/>
    <text x="40" y="26" font-family="Inter, Arial, sans-serif" font-size="20" font-weight="700" fill="#2B7A78">Nutri</text>
    <text x="85" y="26" font-family="Inter, Arial, sans-serif" font-size="20" font-weight="700" fill="#4CAF50">Log</text>
  </g>
</svg>
